<svg xmlns="http://www.w3.org/2000/svg" width="74.442" height="75" viewBox="0 0 74.442 75">
  <path id="Caminho_5" data-name="Caminho 5" d="M6897.658,921.724l.322.163a45.107,45.107,0,0,0-7.106,26c.722,22.38,17.255,38.742,38.462,38.058s36.654-18.076,35.932-40.457a45.057,45.057,0,0,0-7.027-22.987l.407-.158a5.707,5.707,0,1,0-4.509-10.479l-5.308,2.512c-5.062,2.4-6.46,6.035-4.271,11.124a34.169,34.169,0,0,1,2.621,12.272c.232,7.2-1.49,13.777-4.848,18.519a17.032,17.032,0,0,1-13.707,7.6c-5.17.166-10.1-2.221-13.855-6.725-3.861-4.633-6.113-11.078-6.34-18.148a36.836,36.836,0,0,1,2.539-14.274c2.069-5.452.132-9.952-5.234-12.058-1.211-.476-2.421-.941-3.5-1.35a5.664,5.664,0,0,0-6.92,2.442,5.681,5.681,0,0,0,2.343,7.943Zm-.753-7.012a3.825,3.825,0,0,1,4.674-1.651c1.071.407,2.275.87,3.535,1.365,2.535.995,6.444,3.574,4.131,9.669a38.64,38.64,0,0,0-2.659,14.986c.241,7.479,2.644,14.323,6.767,19.269,3.988,4.785,9.21,7.4,14.759,7.4.19,0,.381,0,.572-.01a19.051,19.051,0,0,0,15.151-8.379c3.588-5.068,5.43-12.044,5.185-19.643a35.987,35.987,0,0,0-2.769-12.942c-1.811-4.211-.835-6.74,3.367-8.73l5.308-2.512a3.865,3.865,0,1,1,3.054,7.1l-1.433.557a.92.92,0,0,0-.467,1.392,43.124,43.124,0,0,1,7.346,22.974c.688,21.33-13.993,37.906-34.149,38.555-20.178.629-35.874-14.946-36.562-36.275a43.117,43.117,0,0,1,7.372-25.772.921.921,0,0,0-.384-1.363l-1.214-.614a3.838,3.838,0,0,1-1.583-5.367Zm30.728,60.69a1.365,1.365,0,0,1,1.318-1.407H6929a1.362,1.362,0,0,1,.037,2.723h-.062A1.353,1.353,0,0,1,6927.633,975.4Zm-14.66-4.545a1.363,1.363,0,0,1,1.317-1.406h.051a1.362,1.362,0,0,1,.037,2.724h-.061A1.352,1.352,0,0,1,6912.973,970.857Zm-10.7-10.944a1.363,1.363,0,0,1,1.319-1.406h.051a1.363,1.363,0,0,1,.036,2.725h-.06A1.353,1.353,0,0,1,6902.277,959.913Zm49.443-1.594a1.361,1.361,0,0,1,1.318-1.405h.05a1.363,1.363,0,0,1,.037,2.724h-.061A1.352,1.352,0,0,1,6951.72,958.319Zm2.646-13.344a1.363,1.363,0,0,1,1.317-1.406h.052a1.363,1.363,0,0,1,.036,2.724h-.061A1.352,1.352,0,0,1,6954.366,944.975Zm-55.031.809a1.354,1.354,0,0,1,.949-.429h.052a1.363,1.363,0,0,1,.037,2.724h-.061a1.363,1.363,0,0,1-.977-2.3Zm42.993,24.127a1.361,1.361,0,0,1,1.318-1.405h.051a1.363,1.363,0,0,1,.036,2.724h-.06A1.352,1.352,0,0,1,6942.328,969.911Z" transform="translate(-6890.85 -910.965)" fill="#fff"/>
</svg>
