<svg xmlns="http://www.w3.org/2000/svg" width="111.611" height="111.611" viewBox="0 0 111.611 111.611">
  <path id="Caminho_2" data-name="Caminho 2" d="M4521.678-806.606a16.985,16.985,0,0,0-24.02,0c-8.984,8.984-10.312,34.991-10.472,45.537a5.407,5.407,0,0,0-1.542,0c-.16-10.547-1.487-36.554-10.472-45.537a16.985,16.985,0,0,0-24.02,0,16.906,16.906,0,0,0-4.916,10.652,16.919,16.919,0,0,0-10.653,4.917,16.984,16.984,0,0,0,0,24.019c8.984,8.984,34.991,10.313,45.539,10.474a5.32,5.32,0,0,0,0,1.54c-10.547.161-36.555,1.49-45.539,10.473a16.985,16.985,0,0,0,0,24.019,16.917,16.917,0,0,0,10.652,4.917,16.91,16.91,0,0,0,4.917,10.651,16.983,16.983,0,0,0,24.02,0c8.984-8.983,10.312-34.99,10.472-45.537a5.346,5.346,0,0,0,1.542,0c.16,10.547,1.488,36.555,10.472,45.537a16.983,16.983,0,0,0,24.02,0,16.905,16.905,0,0,0,4.917-10.651,16.917,16.917,0,0,0,10.652-4.917,16.985,16.985,0,0,0,0-24.019c-8.984-8.984-34.991-10.312-45.538-10.473a5.389,5.389,0,0,0,0-1.54c10.546-.161,36.554-1.49,45.538-10.474a16.984,16.984,0,0,0,0-24.019,16.921,16.921,0,0,0-10.652-4.917A16.909,16.909,0,0,0,4521.678-806.606Z" transform="translate(-4430.61 811.581)" fill="#fff"/>
</svg>
