<svg xmlns="http://www.w3.org/2000/svg" width="75" height="74.997" viewBox="0 0 75 74.997">
  <path id="Caminho_3" data-name="Caminho 3" d="M6481.765,982.942l3.315-3.28,3.614,2.949a10.46,10.46,0,0,0,15.2-2.132,11.837,11.837,0,0,0-.176-13.73,11.842,11.842,0,0,0,13.68-1.129,10.465,10.465,0,0,0,.673-15.334l-3.281-3.314,2.949-3.614a10.467,10.467,0,0,0-2.132-15.2,11.831,11.831,0,0,0-13.729.179,11.836,11.836,0,0,0-1.133-13.683,10.462,10.462,0,0,0-15.33-.67l-3.317,3.279-3.613-2.949a10.465,10.465,0,0,0-15.2,2.133,11.836,11.836,0,0,0,.179,13.729,11.829,11.829,0,0,0-13.682,1.131,10.467,10.467,0,0,0-.67,15.332l3.281,3.318-2.947,3.611a10.461,10.461,0,0,0,2.13,15.2,11.829,11.829,0,0,0,14.957-1.217l12.69-12.759a1.022,1.022,0,1,0-1.45-1.442L6465.094,966.1a9.768,9.768,0,0,1-12.356.99,8.4,8.4,0,0,1-1.715-12.224l3.529-4.323a1.029,1.029,0,0,0-.065-1.367l-3.928-3.971a8.4,8.4,0,0,1,.542-12.335,9.79,9.79,0,0,1,12.407-.178l13.821,11.468a1.022,1.022,0,0,0,1.373-1.511l-12.749-12.674a9.774,9.774,0,0,1-.994-12.354,8.4,8.4,0,0,1,12.23-1.715l4.323,3.529a1.019,1.019,0,0,0,1.365-.067l3.967-3.927a8.413,8.413,0,0,1,12.337.54,9.784,9.784,0,0,1,.178,12.411l-11.469,13.82a1.022,1.022,0,0,0,1.51,1.373l12.677-12.748a9.773,9.773,0,0,1,12.356-1,8.407,8.407,0,0,1,1.715,12.23l-3.529,4.324a1.021,1.021,0,0,0,.067,1.364l3.926,3.968a8.411,8.411,0,0,1-.54,12.338,9.781,9.781,0,0,1-12.409.178l-13.821-11.468a1.022,1.022,0,0,0-1.374,1.511l12.75,12.675a9.777,9.777,0,0,1,.993,12.357,8.406,8.406,0,0,1-12.227,1.714l-4.325-3.53a1.03,1.03,0,0,0-1.364.067l-3.968,3.926a8.411,8.411,0,0,1-12.337-.54,9.758,9.758,0,0,1-2.175-4.661,1.022,1.022,0,0,0-2.015.346,11.8,11.8,0,0,0,2.632,5.636A10.466,10.466,0,0,0,6481.765,982.942Z" transform="translate(-6446.086 -910.964)" fill="#fff"/>
</svg>
